<?xml version="1.0" encoding="utf-8"?>
<!-- Generator: Adobe Illustrator 17.1.0, SVG Export Plug-In . SVG Version: 6.00 Build 0)  -->
<!DOCTYPE svg PUBLIC "-//W3C//DTD SVG 1.1//EN" "http://www.w3.org/Graphics/SVG/1.1/DTD/svg11.dtd">
<svg version="1.1" id="レイヤー_1" xmlns="http://www.w3.org/2000/svg" xmlns:xlink="http://www.w3.org/1999/xlink" x="0px"
	 y="0px" viewBox="0 0 123.4 24.3" enable-background="new 0 0 123.4 24.3" xml:space="preserve">
<path d="M16.6,14.6C15.7,13.6,14,13,14,13c0,0-1.9,0.5-3.2,1.6c-0.3,0.2-0.5,0.6-0.6,0.9c-0.5-0.3-1-0.4-1-0.4c0,0-1.9,0.5-3.2,1.6
	c-0.4,0.3-0.6,0.7-0.6,1l-1.1,6.5h11l1.5-8.5C16.9,15.3,16.8,14.9,16.6,14.6z M9.1,22H7l0.7-3.8c0-0.2,0.1-0.3,0.2-0.4
	c0.2-0.2,0.7-0.4,1-0.5c0.2,0.1,0.6,0.3,0.8,0.5c0.1,0.1,0.1,0.2,0.1,0.4L9.1,22z M13.4,22h-2.1l1-5.9c0-0.2,0.1-0.3,0.2-0.4
	c0.2-0.2,0.7-0.4,1-0.5c0.2,0.1,0.6,0.3,0.8,0.5c0.1,0.1,0.1,0.2,0.1,0.4L13.4,22z"/>
<path fill="#368DC3" d="M24.5,11.9c-1.2-1.5-2.9-1.8-2.9-1.8c0,0-1.8,0.3-3.5,1.8c-0.5,0.4-0.8,0.9-0.9,1.4l-1.9,10.9H23l1.9-10.9
	C25,12.8,24.9,12.3,24.5,11.9z M21.1,22H18l1.5-8.5c0-0.2,0.1-0.4,0.3-0.5c0.3-0.2,1.1-0.5,1.5-0.7c0.3,0.2,1,0.4,1.2,0.7
	c0.1,0.1,0.2,0.3,0.1,0.5L21.1,22z"/>
<path d="M25.5,0c0,0,0.4,1.3,0.5,2.1C16.6,4.1,2.4,9,0.3,17.3c-0.6,2.3-0.5,4.7,2.6,6.9c-0.8-1.2-0.9-3.2-0.4-5
	c1.4-5.4,9.3-9.4,24-12.3c0,0.6,0.1,2.5,0.1,2.5l8.9-6.9L25.5,0z"/>
<path fill="#368DC3" d="M47.6,16.8c0-0.1,0.1-0.2,0.1-0.3l0.6-3.4c0.2-1.3-0.6-1.9-2.1-1.9H34.1l-2.3,13h13.2c1.5,0,2.5-0.6,2.7-1.9
	l0.7-3.9C48.5,17.6,48.2,17.1,47.6,16.8z M44,21.6c-0.2,1.1-1.2,1.1-1.9,1.1h-6.2l1.7-9.8h5.2c0.6,0,1.7,0,1.5,1.1L44,15.6
	c-0.2,1.1-1.2,1.1-1.9,1.1h-3.5l-0.3,1.6h0.1l0,0h4.5c0.6,0,1.7,0,1.5,1.1L44,21.6z"/>
<g>
	<path fill="#368DC3" d="M77.8,11.2H65.4l-2.3,13h3.9l2-11.4h5.4c0.6,0,1.7,0,1.5,1.1l-1.4,7.7c-0.2,1.1-1.2,1.1-1.9,1.1h-3.8
		l-0.3,1.6h6.9c1.5,0,2.5-0.6,2.7-1.9l1.6-9.3C80.1,11.8,79.3,11.2,77.8,11.2z"/>
	<path fill="#368DC3" d="M121.3,14.1H115l0.5-2.9h-3.8l-2.3,13h3.8l1.5-8.5h3.2c0.6,0,1.7,0,1.5,1.1l-1.3,7.5h3.8l1.4-7.8
		C123.6,15.1,122.8,14.1,121.3,14.1z"/>
	<path fill="#368DC3" d="M105.7,18.4H101c-0.6,0-1.1-0.2-0.9-1.1l0.1-0.5c0.2-1.1,1.1-1.1,1.7-1.1h6.7l0.3-1.6h-9.6
		c-1.5,0-2.5,0.6-2.7,1.9L96,18.1c-0.2,1.3,0.6,1.9,2.1,1.9h4.3c0.6,0,1.5,0,1.3,1.1l-0.1,0.5c-0.2,1.1-1.1,1.1-1.7,1.1h-6.7
		L95,24.3h9.6c1.5,0,2.5-0.5,2.7-1.9l0.4-2.1C108,18.9,107.1,18.4,105.7,18.4z"/>
	<path fill="#368DC3" d="M93.2,22.6c-0.4,0-0.5-0.2-0.4-0.8l1.4-7.7h-9.9c-1.5,0-2.5,0.6-2.7,1.9l-1.1,6.4c-0.2,1.3,0.6,1.9,2.1,1.9
		h4.7l0.3-1.6h-1.6c-0.6,0-1.7,0-1.5-1.1l0.8-4.8c0.2-1.1,1.2-1.1,1.9-1.1H90l-1.2,6.6c-0.2,1.3,0.6,1.9,2.1,1.9h2.4l0.3-1.6H93.2z"
		/>
</g>
<g>
	<polygon fill="#368DC3" points="63.2,18.2 56.7,13.6 56.4,15.8 50.3,15.8 50,17.2 57.5,17.2 57.7,16.1 60.6,18.2 57,20.2 
		57.2,19.2 49.7,19.2 49.4,20.6 55.5,20.6 55.1,22.9 	"/>
</g>
</svg>
